<svg width="26" height="24" viewBox="0 0 26 24" fill="none" xmlns="http://www.w3.org/2000/svg">
<path d="M20.8889 11.75V7.27778C20.8889 6.93889 20.7543 6.61388 20.5146 6.37425C20.275 6.13462 19.95 6 19.6111 6H4.27778C3.93889 6 3.61388 6.13462 3.37425 6.37425C3.13462 6.61388 3 6.93889 3 7.27778V20.0556C3 20.3944 3.13462 20.7195 3.37425 20.9591C3.61388 21.1987 3.93889 21.3333 4.27778 21.3333H19.6111C19.95 21.3333 20.275 21.1987 20.5146 20.9591C20.7543 20.7195 20.8889 20.3944 20.8889 20.0556V15.5833L26 20.6944V6.63889L20.8889 11.75ZM17.0556 14.9444H13.2222V18.7778H10.6667V14.9444H6.83333V12.3889H10.6667V8.55556H13.2222V12.3889H17.0556V14.9444Z" fill="#5CA4DF"/>
</svg>
